<svg width="238" height="50" viewBox="0 0 238 50" fill="none" xmlns="http://www.w3.org/2000/svg">
<g clip-path="url(#clip0_44_936)">
<path d="M195.016 0.0289372C195.675 1.38088 195.7 2.7282 195.245 4.08014C194.806 5.38463 194.141 6.56296 193.158 7.54798C193.19 7.32227 193.279 7.12897 193.368 6.93567C194.711 3.96555 193.37 1.12971 190.204 0.350719C189.344 0.140056 188.439 0.0324097 187.553 0.0196773C184.883 -0.0196773 182.212 0.0127324 179.542 0.0127324C135.121 0.0127324 90.7024 0.0127324 46.2823 0.0138899C34.5852 0.0138899 22.8894 0.0208348 11.1923 0C10.5879 0 10.2955 0.179411 10.0565 0.717642C8.66893 3.83707 7.24654 6.9403 5.83923 10.0516C5.7615 10.2229 5.71625 10.4093 5.6304 10.6605H18.0641C12.0312 23.4715 6.03066 36.2132 0 49.0184C4.39828 49.0184 8.68982 49.0208 12.9814 49.0057C13.1159 49.0057 13.3132 48.8529 13.3747 48.7221C16.6243 41.849 19.8624 34.97 23.1017 28.0922C25.7318 22.5085 28.3747 16.9294 30.9747 11.3306C31.2427 10.7542 31.5479 10.6234 32.1372 10.6234C80.9707 10.6373 129.803 10.6362 178.637 10.6362C178.783 10.6362 178.929 10.6234 179.169 10.613C178.512 9.27148 178.482 7.93458 178.919 6.59421C179.344 5.28046 180.057 4.12413 180.98 3.09281C180.96 3.3162 180.891 3.51645 180.817 3.71438C179.985 5.92402 180.596 7.98782 182.5 9.3907C183.717 10.2878 185.109 10.6281 186.594 10.6338C189.79 10.6443 192.985 10.6373 196.179 10.6373C208.061 10.6373 219.945 10.6373 231.828 10.6396C232.16 10.6396 232.417 10.6292 232.609 10.26C234.019 7.54219 235.457 4.8383 236.887 2.13093C237.238 1.46654 237.589 0.803297 237.999 0.0289372H195.016ZM230.407 14.4755C226.586 14.4651 222.767 14.4582 218.946 14.4408C218.624 14.4385 218.464 14.582 218.329 14.8506C215.568 20.3162 212.801 25.7796 210.036 31.2429C208.989 33.3102 207.948 35.3775 206.903 37.4447C206.864 37.2491 206.903 37.0801 206.96 36.9169C207.257 36.0592 207.585 35.2108 207.851 34.345C208.479 32.3113 208.95 30.2394 208.902 28.1026C208.871 26.6928 208.687 25.2853 208.566 23.8778C208.314 20.9447 208.046 18.0117 207.82 15.0763C207.784 14.6017 207.666 14.4501 207.176 14.4524C203.626 14.4744 200.076 14.5022 196.527 14.4443C195.698 14.4316 195.334 14.6966 194.974 15.4108C189.832 25.6291 184.655 35.8289 179.485 46.0344C178.924 47.1398 178.364 48.2441 177.782 49.3946C177.931 49.4085 178.01 49.4224 178.089 49.4224C181.961 49.4236 185.831 49.4178 189.702 49.4317C190.069 49.4317 190.196 49.2418 190.331 48.9721C193.022 43.6026 195.716 38.2341 198.411 32.868C198.566 32.5601 198.735 32.2592 198.897 31.9548C198.943 31.9617 198.991 31.9687 199.037 31.9768C199.65 37.7781 200.263 43.5806 200.876 49.3865C200.932 49.3981 200.981 49.4178 201.028 49.4178C204.95 49.4213 208.871 49.427 212.794 49.4097C212.953 49.4085 213.177 49.2233 213.259 49.0659C214.028 47.5901 214.772 46.0993 215.524 44.6142C220.459 34.874 225.396 25.1348 230.33 15.3934C230.472 15.1156 230.604 14.832 230.76 14.508C230.598 14.4929 230.503 14.4767 230.407 14.4755ZM45.4295 14.4246C35.7071 14.4489 27.7297 22.0779 27.6021 31.9177C27.4675 42.3571 36.1468 50.044 45.7242 49.8692C54.8909 49.7014 63.2802 42.3884 63.2465 32.0786C63.2152 22.2365 55.2876 14.4698 45.4295 14.4246ZM100.268 15.5462C98.5035 14.7776 96.624 14.5566 94.7225 14.5508C89.6861 14.5357 84.6497 14.5797 79.6145 14.5242C78.6376 14.5137 78.1828 14.7927 77.7396 15.6782C72.3065 26.5377 66.8164 37.3695 61.3415 48.2094C61.1547 48.5786 60.9795 48.9548 60.751 49.4236H61.2765C64.8256 49.4236 68.3746 49.3923 71.9236 49.4456C72.7439 49.4583 73.1372 49.2303 73.5061 48.4837C75.9135 43.6141 78.3858 38.777 80.8373 33.9294C81.2736 33.0648 81.7075 32.199 82.1437 31.3332C82.1878 31.3517 82.2319 31.3691 82.276 31.3864C81.3269 33.8519 80.248 36.2734 79.6342 38.8962C79.8361 38.9055 79.9846 38.9194 80.1331 38.9194C81.6877 38.9194 83.2436 38.909 84.7982 38.9194C87.4272 38.9402 89.9263 38.3672 92.2965 37.2595C96.2412 35.4168 99.2449 32.5393 101.47 28.8377C102.692 26.8051 103.648 24.6614 103.999 22.2932C104.465 19.1564 103.176 16.8102 100.268 15.5451V15.5462ZM90.475 26.518C89.6176 28.605 88.0154 29.7555 85.7902 30.0218C84.8145 30.1387 83.8237 30.1375 82.7342 30.1965C83.3468 28.9881 83.8933 27.9151 84.4351 26.8398C84.8295 26.0597 85.2008 25.268 85.6231 24.5029C85.7264 24.3165 85.9886 24.0943 86.1754 24.0966C87.1859 24.1093 88.2045 24.1197 89.2023 24.2609C90.5272 24.4473 90.9809 25.2888 90.475 26.518ZM168.804 20.7468C168.63 17.9191 167.001 16.2071 164.401 15.3066C162.639 14.6966 160.808 14.5461 158.957 14.545C153.835 14.5415 148.714 14.5357 143.592 14.5242C143.257 14.5242 143.035 14.604 142.871 14.9362C142.099 16.5046 141.296 18.0603 140.507 19.6217C135.682 29.1722 130.859 38.7214 126.036 48.273C125.85 48.6399 125.672 49.0103 125.481 49.3969C125.587 49.4097 125.637 49.4224 125.688 49.4224C129.592 49.4259 133.497 49.4328 137.402 49.4155C137.578 49.4155 137.832 49.2326 137.915 49.0671C140.608 43.7542 143.285 38.4344 145.963 33.1157C146.13 32.7847 146.308 32.4594 146.476 32.1295C146.636 31.8182 146.793 31.5045 146.951 31.1908C146.163 33.7801 145.024 36.2375 144.381 38.8962C144.543 38.9078 144.642 38.9217 144.742 38.9217C146.499 38.9217 148.258 38.9356 150.016 38.9147C152.116 38.8904 154.147 38.4703 156.08 37.6646C161.865 35.2559 165.673 30.9547 167.956 25.2263C168.527 23.7922 168.899 22.2967 168.804 20.7468ZM155.238 26.4278C154.426 28.5355 152.834 29.7081 150.62 30.0125C149.625 30.1491 148.61 30.1375 147.604 30.1931C147.58 30.1398 147.555 30.0866 147.531 30.0333C147.776 29.5611 148.023 29.0911 148.264 28.6189C148.973 27.2264 149.671 25.8305 150.396 24.4473C150.48 24.2876 150.703 24.0896 150.856 24.0943C151.915 24.1244 152.984 24.1371 154.029 24.2876C155.238 24.4612 155.68 25.2807 155.238 26.4278ZM120.097 23.659C121.153 23.1451 122.277 23.1127 123.415 23.3141C125.314 23.6498 127.071 24.3478 128.717 25.4694C131.024 22.5814 133.318 19.7062 135.64 16.7986C133.957 15.8946 132.329 15.0497 130.536 14.589C127.993 13.935 125.411 13.7683 122.794 13.9743C119.241 14.2533 115.885 15.1851 112.792 16.9676C109.494 18.8705 107.008 21.483 105.809 25.1592C105.259 26.8468 104.959 28.5645 105.707 30.2868C106.462 32.0254 107.798 33.2384 109.378 34.2095C110.124 34.6691 110.915 35.0557 111.666 35.5071C112.27 35.8717 112.892 36.2294 113.422 36.6866C114.148 37.3128 114.182 37.9887 113.702 38.8106C113.172 39.7169 112.346 40.2065 111.362 40.4392C109.496 40.8802 107.645 40.6544 105.867 40.0676C104.514 39.622 103.237 38.9529 101.872 38.3591C99.3992 41.0422 96.8897 43.7716 94.3721 46.4928C94.1227 46.7637 94.1807 46.9234 94.4858 47.0611C95.791 47.6468 97.0568 48.3471 98.4061 48.8008C102.035 50.0197 105.773 50.2257 109.567 49.7928C112.78 49.4247 115.872 48.655 118.77 47.1989C122.22 45.465 124.846 42.9416 126.406 39.3662C127.608 36.6102 127.455 34.051 125.383 31.7684C124.673 30.9871 123.873 30.2683 123.033 29.6259C121.992 28.8272 120.851 28.1559 119.778 27.3966C118.284 26.3398 118.445 24.4623 120.097 23.659ZM188.563 14.5473C184.964 14.5461 181.364 14.5519 177.765 14.5334C177.251 14.5311 176.958 14.6781 176.713 15.1666C171.376 25.7715 166.02 36.3671 160.666 46.9651C160.267 47.7556 159.875 48.5497 159.455 49.3935C159.663 49.4062 159.792 49.4213 159.92 49.4213C163.874 49.4247 167.828 49.4213 171.782 49.4386C172.153 49.4386 172.276 49.2488 172.41 48.9837C173.627 46.5646 174.849 44.1477 176.069 41.7309C180.072 33.8056 184.076 25.8803 188.078 17.955C188.63 16.8623 189.183 15.7685 189.8 14.5473H188.563Z" fill="white"/>
<path d="M238 0.0289372C237.591 0.803297 237.239 1.46654 236.888 2.13093C235.458 4.8383 234.02 7.54219 232.609 10.26C232.417 10.6304 232.16 10.6408 231.828 10.6396C219.945 10.6362 208.063 10.6362 196.179 10.6362C192.984 10.6362 189.79 10.6431 186.595 10.6327C185.11 10.6281 183.716 10.2866 182.499 9.38954C180.595 7.98667 179.985 5.92287 180.816 3.71322C180.89 3.51529 180.961 3.31504 180.98 3.09165C180.057 4.12413 179.345 5.28046 178.918 6.59305C178.482 7.93342 178.512 9.27148 179.168 10.6118C178.928 10.6223 178.782 10.635 178.636 10.635C129.802 10.635 80.9686 10.6373 32.1363 10.6234C31.5469 10.6234 31.2418 10.7542 30.9738 11.3306C28.3738 16.9294 25.7309 22.5085 23.1007 28.0922C19.8615 34.97 16.6234 41.849 13.3737 48.721C13.3122 48.8518 13.115 49.0046 12.9804 49.0046C8.68884 49.0196 4.39614 49.0173 -0.000976562 49.0173C6.02969 36.212 12.0302 23.4715 18.0632 10.6605H5.63058C5.71643 10.4081 5.76168 10.2229 5.83941 10.0505C7.24672 6.9403 8.66912 3.83591 10.0567 0.716485C10.2957 0.179411 10.5881 0 11.1925 0C22.8896 0.0208348 34.5854 0.0138899 46.2824 0.0138899C90.7026 0.0138899 135.123 0.0138899 179.543 0.0127324C182.214 0.0127324 184.884 -0.0196773 187.554 0.0196773C188.44 0.0324097 189.345 0.140056 190.205 0.350719C193.371 1.12971 194.711 3.96555 193.368 6.93451C193.28 7.12897 193.19 7.32227 193.158 7.54682C194.142 6.5618 194.805 5.38463 195.244 4.08014C195.699 2.7282 195.675 1.37973 195.015 0.0277797H237.999L238 0.0289372Z" fill="white"/>
<path d="M177.781 49.3947C178.364 48.2453 178.924 47.1399 179.484 46.0345C184.654 35.8301 189.832 25.6291 194.974 15.4108C195.333 14.6978 195.698 14.4316 196.526 14.4455C200.075 14.5034 203.626 14.4756 207.176 14.4536C207.665 14.4501 207.784 14.6029 207.821 15.0775C208.047 18.0129 208.315 20.9448 208.566 23.879C208.686 25.2865 208.871 26.694 208.902 28.1038C208.95 30.2406 208.479 32.3125 207.851 34.345C207.583 35.212 207.256 36.0593 206.96 36.917C206.903 37.0802 206.864 37.2492 206.903 37.4448C207.947 35.3775 208.99 33.3091 210.036 31.243C212.8 25.7785 215.567 20.3163 218.329 14.8495C218.464 14.5809 218.623 14.4385 218.947 14.4397C222.768 14.4582 226.587 14.464 230.407 14.4756C230.504 14.4756 230.599 14.4918 230.761 14.5068C230.603 14.8309 230.472 15.1145 230.331 15.3923C225.395 25.1326 220.46 34.8728 215.525 44.6131C214.772 46.0982 214.028 47.5878 213.259 49.0648C213.176 49.2222 212.952 49.4074 212.793 49.4074C208.872 49.4248 204.951 49.419 201.028 49.4155C200.98 49.4155 200.932 49.3958 200.876 49.3843C200.262 43.5783 199.65 37.7758 199.037 31.9745C198.991 31.9675 198.944 31.9594 198.898 31.9525C198.735 32.2569 198.566 32.5579 198.412 32.8658C195.717 38.233 193.021 43.6003 190.331 48.9699C190.195 49.2407 190.07 49.4317 189.702 49.4306C185.831 49.4167 181.96 49.4225 178.089 49.4213C178.01 49.4213 177.931 49.4074 177.781 49.3924V49.3947Z" fill="white"/>
<path d="M45.4294 14.4246C55.2875 14.4697 63.2163 22.2364 63.2476 32.0786C63.2812 42.3895 54.8908 49.7013 45.7253 49.8692C36.1479 50.0439 27.4685 42.3582 27.6031 31.9177C27.7307 22.0779 35.7082 14.4489 45.4294 14.4246Z" fill="white"/>
<path d="M100.268 15.5463C98.5035 14.7777 96.624 14.5566 94.7225 14.5508C89.6861 14.5358 84.6497 14.5798 79.6145 14.5242C78.6376 14.5138 78.1828 14.7927 77.7396 15.6782C72.3065 26.5378 66.8164 37.3695 61.3415 48.2094C61.1547 48.5787 60.9795 48.9548 60.751 49.4236H61.2765C64.8256 49.4236 68.3746 49.3924 71.9236 49.4456C72.7438 49.4583 73.1372 49.2303 73.5061 48.4837C75.9135 43.6142 78.3859 38.777 80.8373 33.9295C81.2736 33.0648 81.7075 32.199 82.1437 31.3332C82.1878 31.3518 82.2319 31.3691 82.276 31.3865C81.3269 33.8519 80.248 36.2734 79.6342 38.8963C79.8361 38.9055 79.9846 38.9194 80.1331 38.9194C81.6877 38.9194 83.2436 38.909 84.7982 38.9194C87.4272 38.9403 89.9263 38.3673 92.2965 37.2596C96.2412 35.4169 99.2449 32.5393 101.47 28.8377C102.692 26.8052 103.648 24.6615 103.999 22.2933C104.465 19.1565 103.176 16.8102 100.268 15.5451V15.5463ZM90.475 26.5181C89.6176 28.605 88.0154 29.7556 85.7902 30.0218C84.8145 30.1387 83.8237 30.1376 82.7342 30.1966C83.3468 28.9882 83.8933 27.9152 84.4351 26.8399C84.8295 26.0597 85.2008 25.268 85.6231 24.5029C85.7264 24.3166 85.9886 24.0943 86.1754 24.0966C87.1859 24.1094 88.2045 24.1198 89.2023 24.261C90.5272 24.4473 90.9809 25.2888 90.475 26.5181Z" fill="white"/>
<path d="M168.804 20.7468C168.63 17.9191 167.001 16.2072 164.401 15.3066C162.639 14.6966 160.808 14.5462 158.958 14.545C153.835 14.5415 148.714 14.5357 143.592 14.5242C143.257 14.5242 143.035 14.604 142.872 14.9362C142.099 16.5046 141.296 18.0603 140.507 19.6217C135.682 29.1722 130.859 38.7215 126.036 48.273C125.85 48.64 125.672 49.0104 125.481 49.397C125.587 49.4097 125.637 49.4224 125.688 49.4224C129.592 49.4259 133.497 49.4328 137.402 49.4155C137.578 49.4155 137.832 49.2326 137.915 49.0671C140.608 43.7542 143.285 38.4344 145.963 33.1157C146.13 32.7847 146.308 32.4594 146.476 32.1296C146.636 31.8182 146.793 31.5045 146.951 31.1908C146.163 33.7801 145.024 36.2375 144.381 38.8962C144.543 38.9078 144.642 38.9217 144.742 38.9217C146.499 38.9217 148.258 38.9356 150.016 38.9148C152.116 38.8904 154.147 38.4703 156.08 37.6647C161.865 35.2559 165.673 30.9547 167.956 25.2263C168.527 23.7922 168.899 22.2967 168.804 20.7468ZM155.238 26.4278C154.426 28.5356 152.834 29.7081 150.62 30.0125C149.625 30.1491 148.61 30.1375 147.604 30.1931C147.58 30.1398 147.555 30.0866 147.531 30.0333C147.776 29.5611 148.023 29.0912 148.264 28.6189C148.973 27.2264 149.671 25.8305 150.397 24.4473C150.48 24.2876 150.703 24.0896 150.856 24.0943C151.915 24.1244 152.984 24.1371 154.029 24.2876C155.238 24.4612 155.68 25.2807 155.238 26.4278Z" fill="white"/>
<path d="M101.872 38.359C103.237 38.9528 104.515 39.6219 105.866 40.0675C107.644 40.6532 109.497 40.8801 111.361 40.439C112.345 40.2064 113.171 39.7168 113.701 38.8105C114.183 37.9886 114.147 37.3127 113.421 36.6865C112.891 36.2293 112.269 35.8704 111.665 35.507C110.914 35.0556 110.123 34.6678 109.377 34.2094C107.797 33.2383 106.461 32.0253 105.706 30.2867C104.959 28.5655 105.258 26.8467 105.808 25.1591C107.006 21.4829 109.493 18.8704 112.791 16.9687C115.885 15.1861 119.239 14.2532 122.792 13.9742C125.409 13.7694 127.991 13.9349 130.534 14.5889C132.327 15.0496 133.956 15.8945 135.638 16.7985C133.316 19.7061 131.022 22.5813 128.715 25.4704C127.069 24.3488 125.312 23.6508 123.412 23.3152C122.275 23.1138 121.151 23.1462 120.094 23.6601C118.443 24.4634 118.28 26.3408 119.775 27.3976C120.848 28.1569 121.988 28.8283 123.03 29.627C123.869 30.2694 124.668 30.9882 125.378 31.7695C127.452 34.052 127.604 36.6112 126.402 39.3672C124.842 42.9427 122.217 45.466 118.766 47.1999C115.868 48.6561 112.776 49.4258 109.563 49.7939C105.769 50.2279 102.031 50.0219 98.4028 48.8019C97.0535 48.3482 95.7866 47.649 94.4825 47.0622C94.1762 46.9244 94.1182 46.7647 94.3688 46.495C96.8864 43.7738 99.3959 41.0444 101.868 38.3614L101.872 38.359Z" fill="white"/>
<path d="M189.8 14.5474C189.183 15.7685 188.63 16.8612 188.078 17.9539C184.075 25.8792 180.072 33.8045 176.069 41.7298C174.848 44.1466 173.627 46.5635 172.41 48.9826C172.276 49.2477 172.153 49.4398 171.782 49.4375C167.828 49.419 163.874 49.4236 159.92 49.4213C159.792 49.4213 159.663 49.4063 159.455 49.3924C159.876 48.5486 160.267 47.7545 160.667 46.964C166.019 36.366 171.377 25.7704 176.714 15.1655C176.959 14.6782 177.252 14.5312 177.766 14.5335C181.365 14.5508 184.964 14.545 188.564 14.5474C188.941 14.5474 189.318 14.5474 189.801 14.5474H189.8Z" fill="white"/>
</g>
<defs>
<clipPath id="clip0_44_936">
<rect width="238" height="50" fill="white"/>
</clipPath>
</defs>
</svg>
