<svg width="30" height="31" viewBox="0 0 30 31" fill="none" xmlns="http://www.w3.org/2000/svg">
<g clip-path="url(#clip0_2_861)">
<path fill-rule="evenodd" clip-rule="evenodd" d="M3.6001 0.629883C4.19344 0.629883 4.77346 0.80583 5.26681 1.13547C5.76016 1.46512 6.14467 1.93365 6.37174 2.48183C6.5988 3.03001 6.65821 3.63321 6.54245 4.21515C6.4267 4.7971 6.14098 5.33165 5.72142 5.7512C5.30186 6.17076 4.76731 6.45648 4.18537 6.57224C3.60343 6.68799 3.00023 6.62858 2.45205 6.40152C1.90387 6.17446 1.43533 5.78994 1.10569 5.29659C0.776045 4.80325 0.600098 4.22323 0.600098 3.62988C0.600098 2.83423 0.916168 2.07117 1.47878 1.50856C2.04139 0.945953 2.80445 0.629883 3.6001 0.629883ZM15.6001 0.629883C16.1934 0.629883 16.7735 0.80583 17.2668 1.13547C17.7602 1.46512 18.1447 1.93365 18.3717 2.48183C18.5988 3.03001 18.6582 3.63321 18.5425 4.21515C18.4267 4.7971 18.141 5.33165 17.7214 5.7512C17.3019 6.17076 16.7673 6.45648 16.1854 6.57224C15.6034 6.68799 15.0002 6.62858 14.452 6.40152C13.9039 6.17446 13.4353 5.78994 13.1057 5.29659C12.776 4.80325 12.6001 4.22323 12.6001 3.62988C12.6001 2.83423 12.9162 2.07117 13.4788 1.50856C14.0414 0.945953 14.8044 0.629883 15.6001 0.629883ZM26.4001 0.629883C26.9934 0.629883 27.5735 0.80583 28.0668 1.13547C28.5602 1.46512 28.9447 1.93365 29.1717 2.48183C29.3988 3.03001 29.4582 3.63321 29.3425 4.21515C29.2267 4.7971 28.941 5.33165 28.5214 5.7512C28.1019 6.17076 27.5673 6.45648 26.9854 6.57224C26.4034 6.68799 25.8002 6.62858 25.252 6.40152C24.7039 6.17446 24.2353 5.78994 23.9057 5.29659C23.576 4.80325 23.4001 4.22323 23.4001 3.62988C23.4001 2.83423 23.7162 2.07117 24.2788 1.50856C24.8414 0.945953 25.6044 0.629883 26.4001 0.629883ZM3.6001 12.6299C4.19344 12.6299 4.77346 12.8058 5.26681 13.1355C5.76016 13.4651 6.14467 13.9337 6.37174 14.4818C6.5988 15.03 6.65821 15.6332 6.54245 16.2152C6.4267 16.7971 6.14098 17.3316 5.72142 17.7512C5.30186 18.1708 4.76731 18.4565 4.18537 18.5722C3.60343 18.688 3.00023 18.6286 2.45205 18.4015C1.90387 18.1745 1.43533 17.7899 1.10569 17.2966C0.776045 16.8032 0.600098 16.2232 0.600098 15.6299C0.600098 14.8342 0.916168 14.0712 1.47878 13.5086C2.04139 12.946 2.80445 12.6299 3.6001 12.6299ZM15.6001 12.6299C16.1934 12.6299 16.7735 12.8058 17.2668 13.1355C17.7602 13.4651 18.1447 13.9337 18.3717 14.4818C18.5988 15.03 18.6582 15.6332 18.5425 16.2152C18.4267 16.7971 18.141 17.3316 17.7214 17.7512C17.3019 18.1708 16.7673 18.4565 16.1854 18.5722C15.6034 18.688 15.0002 18.6286 14.452 18.4015C13.9039 18.1745 13.4353 17.7899 13.1057 17.2966C12.776 16.8032 12.6001 16.2232 12.6001 15.6299C12.6001 14.8342 12.9162 14.0712 13.4788 13.5086C14.0414 12.946 14.8044 12.6299 15.6001 12.6299ZM26.4001 12.6299C26.9934 12.6299 27.5735 12.8058 28.0668 13.1355C28.5602 13.4651 28.9447 13.9337 29.1717 14.4818C29.3988 15.03 29.4582 15.6332 29.3425 16.2152C29.2267 16.7971 28.941 17.3316 28.5214 17.7512C28.1019 18.1708 27.5673 18.4565 26.9854 18.5722C26.4034 18.688 25.8002 18.6286 25.252 18.4015C24.7039 18.1745 24.2353 17.7899 23.9057 17.2966C23.576 16.8032 23.4001 16.2232 23.4001 15.6299C23.4001 14.8342 23.7162 14.0712 24.2788 13.5086C24.8414 12.946 25.6044 12.6299 26.4001 12.6299ZM3.6001 24.6299C4.19344 24.6299 4.77346 24.8058 5.26681 25.1355C5.76016 25.4651 6.14467 25.9337 6.37174 26.4818C6.5988 27.03 6.65821 27.6332 6.54245 28.2152C6.4267 28.7971 6.14098 29.3316 5.72142 29.7512C5.30186 30.1708 4.76731 30.4565 4.18537 30.5722C3.60343 30.688 3.00023 30.6286 2.45205 30.4015C1.90387 30.1745 1.43533 29.7899 1.10569 29.2966C0.776045 28.8032 0.600098 28.2232 0.600098 27.6299C0.600098 26.8342 0.916168 26.0712 1.47878 25.5086C2.04139 24.946 2.80445 24.6299 3.6001 24.6299ZM15.6001 24.6299C16.1934 24.6299 16.7735 24.8058 17.2668 25.1355C17.7602 25.4651 18.1447 25.9337 18.3717 26.4818C18.5988 27.03 18.6582 27.6332 18.5425 28.2152C18.4267 28.7971 18.141 29.3316 17.7214 29.7512C17.3019 30.1708 16.7673 30.4565 16.1854 30.5722C15.6034 30.688 15.0002 30.6286 14.452 30.4015C13.9039 30.1745 13.4353 29.7899 13.1057 29.2966C12.776 28.8032 12.6001 28.2232 12.6001 27.6299C12.6001 26.8342 12.9162 26.0712 13.4788 25.5086C14.0414 24.946 14.8044 24.6299 15.6001 24.6299ZM26.4001 24.6299C26.9934 24.6299 27.5735 24.8058 28.0668 25.1355C28.5602 25.4651 28.9447 25.9337 29.1717 26.4818C29.3988 27.03 29.4582 27.6332 29.3425 28.2152C29.2267 28.7971 28.941 29.3316 28.5214 29.7512C28.1019 30.1708 27.5673 30.4565 26.9854 30.5722C26.4034 30.688 25.8002 30.6286 25.252 30.4015C24.7039 30.1745 24.2353 29.7899 23.9057 29.2966C23.576 28.8032 23.4001 28.2232 23.4001 27.6299C23.4001 26.8342 23.7162 26.0712 24.2788 25.5086C24.8414 24.946 25.6044 24.6299 26.4001 24.6299Z" fill="#FEFEFE"/>
</g>
<defs>
<clipPath id="clip0_2_861">
<rect width="28.8" height="30" fill="white" transform="translate(0.600098 0.629883)"/>
</clipPath>
</defs>
</svg>
