<svg width="11" height="20" viewBox="0 0 11 20" fill="none" xmlns="http://www.w3.org/2000/svg">
<g clip-path="url(#clip0_2_835)">
<path fill-rule="evenodd" clip-rule="evenodd" d="M10.1303 0.510255H7.66272C4.88542 0.510255 3.09708 2.36845 3.09708 5.24367V7.42655H0.609506C0.558097 7.42628 0.50715 7.43624 0.459627 7.45585C0.412104 7.47546 0.369056 7.50433 0.332797 7.54078C0.296538 7.57722 0.267896 7.62052 0.248528 7.66814C0.229161 7.71576 0.219461 7.76676 0.219991 7.81817V10.9801C0.219461 11.0315 0.229161 11.0825 0.248528 11.1301C0.267896 11.1778 0.296538 11.221 0.332797 11.2575C0.369056 11.2939 0.412104 11.3228 0.459627 11.3424C0.50715 11.362 0.558097 11.372 0.609506 11.3717H3.09708V19.351C3.09655 19.4024 3.10625 19.4534 3.12562 19.501C3.14499 19.5486 3.17375 19.5919 3.21001 19.6284C3.24627 19.6648 3.28932 19.6937 3.33684 19.7133C3.38436 19.7329 3.43531 19.7429 3.48672 19.7426H6.72357C6.77498 19.7429 6.82593 19.7329 6.87345 19.7133C6.92097 19.6937 6.96414 19.6648 7.0004 19.6284C7.03666 19.5919 7.0653 19.5486 7.08467 19.501C7.10404 19.4534 7.11374 19.4024 7.11321 19.351V11.3677H10.0204C10.1238 11.3667 10.2225 11.325 10.2954 11.2517C10.3683 11.1785 10.4095 11.0795 10.4101 10.9761V7.81417C10.408 7.71128 10.3664 7.61315 10.2938 7.5402C10.2213 7.46725 10.1233 7.4251 10.0204 7.42255H7.11321V5.57234C7.06698 5.38543 7.07014 5.18971 7.12235 5.00438C7.17457 4.81904 7.27413 4.65047 7.41114 4.51517C7.54814 4.37988 7.71797 4.28252 7.90394 4.23264C8.08992 4.18276 8.28556 4.18207 8.47188 4.23065H10.1303C10.1817 4.23092 10.2327 4.22095 10.2802 4.20134C10.3277 4.18173 10.3709 4.15286 10.4071 4.11642C10.4434 4.07997 10.472 4.03668 10.4914 3.98906C10.5108 3.94143 10.5205 3.89043 10.5199 3.83903V0.902874C10.5205 0.85142 10.5108 0.800374 10.4914 0.752696C10.472 0.705018 10.4434 0.661659 10.4071 0.625134C10.3709 0.588609 10.3278 0.559646 10.2803 0.539926C10.2328 0.520205 10.1818 0.51012 10.1303 0.510255Z" fill="white"/>
</g>
<defs>
<clipPath id="clip0_2_835">
<rect width="10.31" height="19.2313" fill="white" transform="translate(0.219971 0.509277)"/>
</clipPath>
</defs>
</svg>
