<svg width="27" height="13" viewBox="0 0 27 13" fill="none" xmlns="http://www.w3.org/2000/svg">
<g clip-path="url(#clip0_2_844)">
<path fill-rule="evenodd" clip-rule="evenodd" d="M26.3846 4.14449L13.501 0.494638L13.3847 0.462646L0.384766 4.14643L5.18344 5.9951V7.76719C4.97267 7.84715 4.79117 7.98933 4.66312 8.17487C4.53506 8.3604 4.46644 8.58049 4.46644 8.80592C4.46644 9.03135 4.53506 9.25145 4.66312 9.43698C4.79117 9.62251 4.97267 9.7647 5.18344 9.84465V12.7713H5.99772V9.84078C6.20611 9.7585 6.38493 9.61544 6.51095 9.43019C6.63697 9.24495 6.70431 9.02609 6.70431 8.80205C6.70431 8.578 6.63697 8.35914 6.51095 8.1739C6.38493 7.98865 6.20611 7.8456 5.99772 7.76332V6.30919L6.97684 6.6892V9.75353L7.13198 9.87567C8.86345 11.3369 11.0559 12.1385 13.3216 12.1385C15.5872 12.1385 17.7799 11.3369 19.5113 9.87567L19.6568 9.75353V6.73864L26.3846 4.14449ZM5.59052 9.10596C5.53035 9.10653 5.47137 9.08921 5.42107 9.05618C5.37076 9.02314 5.33144 8.9759 5.30805 8.92045C5.28467 8.865 5.27837 8.80386 5.28983 8.74478C5.30129 8.6857 5.33001 8.63137 5.37243 8.58868C5.41484 8.54599 5.46892 8.51688 5.52792 8.50504C5.58693 8.49321 5.64818 8.49918 5.70377 8.52221C5.75937 8.54524 5.80686 8.58428 5.84021 8.63436C5.87357 8.68445 5.89129 8.74332 5.8911 8.8035C5.89085 8.8834 5.85916 8.95999 5.80294 9.01676C5.74672 9.07352 5.67041 9.10494 5.59052 9.10596ZM13.3847 1.30798L23.8156 4.26179L13.3847 8.28971L7.19979 5.90301L13.4719 4.60593L13.3072 3.80907L5.79418 5.36013L2.95374 4.2647L13.3847 1.30798ZM18.8425 9.36092C17.2785 10.6254 15.3281 11.3153 13.3169 11.3153C11.3056 11.3153 9.35513 10.6254 7.79112 9.36092V7.00039L13.3847 9.15734L18.8425 7.05274V9.36092Z" fill="white"/>
</g>
<defs>
<clipPath id="clip0_2_844">
<rect width="25.99" height="12.33" fill="white" transform="translate(0.384766 0.449951)"/>
</clipPath>
</defs>
</svg>
