<svg width="18" height="17" viewBox="0 0 18 17" fill="none" xmlns="http://www.w3.org/2000/svg">
<g clip-path="url(#clip0_2_848)">
<path fill-rule="evenodd" clip-rule="evenodd" d="M16.1739 1.81116H14.5152V0.975853C14.5139 0.90773 14.4861 0.842825 14.4375 0.795021C14.389 0.747217 14.3237 0.720311 14.2556 0.720063C14.2223 0.720322 14.1894 0.727159 14.1588 0.74018C14.1283 0.753201 14.1006 0.772149 14.0774 0.795928C14.0541 0.819707 14.0359 0.84785 14.0236 0.87873C14.0113 0.909611 14.0052 0.94262 14.0058 0.975853V1.81216H11.7875V0.975853C11.7862 0.90773 11.7583 0.842825 11.7098 0.795021C11.6612 0.747217 11.5958 0.720311 11.5277 0.720063C11.4945 0.720322 11.4617 0.727159 11.4311 0.74018C11.4005 0.753201 11.3728 0.772149 11.3496 0.795928C11.3264 0.819707 11.308 0.84785 11.2957 0.87873C11.2834 0.909611 11.2774 0.94262 11.2779 0.975853V1.81216H9.05976V0.975853C9.05845 0.90773 9.03061 0.842825 8.98206 0.795021C8.93351 0.747217 8.86809 0.720311 8.79996 0.720063C8.76672 0.720322 8.73394 0.727159 8.70336 0.74018C8.67278 0.753201 8.64498 0.772149 8.62176 0.795928C8.59854 0.819707 8.58027 0.84785 8.56797 0.87873C8.55568 0.909611 8.54964 0.94262 8.55017 0.975853V1.81216H6.33202V0.975853C6.33202 0.906953 6.30463 0.840874 6.25591 0.792155C6.20719 0.743435 6.14112 0.716064 6.07222 0.716064C6.00332 0.716064 5.93726 0.743435 5.88854 0.792155C5.83982 0.840874 5.81243 0.906953 5.81243 0.975853V1.81216H3.60428V0.975853C3.60428 0.906953 3.57689 0.840874 3.52818 0.792155C3.47946 0.743435 3.41339 0.716064 3.34449 0.716064C3.27559 0.716064 3.20952 0.743435 3.1608 0.792155C3.11208 0.840874 3.08469 0.906953 3.08469 0.975853V1.81216H1.43602C1.25894 1.81177 1.08355 1.84632 0.919847 1.91385C0.756145 1.98137 0.607406 2.08053 0.482097 2.20566C0.356789 2.33078 0.257379 2.4794 0.189613 2.643C0.121847 2.80661 0.0870267 2.98198 0.0871586 3.15906V15.1652C0.0870267 15.3423 0.121847 15.5176 0.189613 15.6812C0.257379 15.8448 0.356789 15.9935 0.482097 16.1186C0.607406 16.2437 0.756145 16.3429 0.919847 16.4104C1.08355 16.4779 1.25894 16.5125 1.43602 16.5121H16.1739C16.53 16.5107 16.8709 16.3682 17.122 16.1156C17.373 15.8631 17.5136 15.5213 17.5128 15.1652V3.15906C17.5138 2.80281 17.3734 2.46071 17.1223 2.20796C16.8713 1.95521 16.5301 1.81249 16.1739 1.81116ZM17.0033 15.1642C17.0038 15.2736 16.9827 15.382 16.9413 15.4832C16.8999 15.5845 16.8389 15.6766 16.7619 15.7542C16.6849 15.8319 16.5934 15.8936 16.4925 15.9359C16.3916 15.9781 16.2833 16.0001 16.1739 16.0005H1.43602C1.21402 16.0002 1.00112 15.9121 0.84386 15.7554C0.686602 15.5987 0.597805 15.3862 0.596749 15.1642V3.15906C0.597805 2.93706 0.686602 2.7245 0.84386 2.5678C1.00112 2.4111 1.21402 2.32301 1.43602 2.32274H3.08469V3.15906C3.08469 3.22796 3.11208 3.29403 3.1608 3.34275C3.20952 3.39147 3.27559 3.41884 3.34449 3.41884C3.41339 3.41884 3.47946 3.39147 3.52818 3.34275C3.57689 3.29403 3.60428 3.22796 3.60428 3.15906V2.32274H5.81243V3.15906C5.81243 3.22796 5.83982 3.29403 5.88854 3.34275C5.93726 3.39147 6.00332 3.41884 6.07222 3.41884C6.14112 3.41884 6.20719 3.39147 6.25591 3.34275C6.30463 3.29403 6.33202 3.22796 6.33202 3.15906V2.32274H8.55017V3.15906C8.54964 3.19229 8.55568 3.2253 8.56797 3.25618C8.58027 3.28706 8.59854 3.3152 8.62176 3.33898C8.64498 3.36276 8.67278 3.38171 8.70336 3.39473C8.73394 3.40775 8.76672 3.41458 8.79996 3.41484C8.86809 3.4146 8.93351 3.38769 8.98206 3.33989C9.03061 3.29209 9.05845 3.22718 9.05976 3.15906V2.32274H11.2779V3.15906C11.2774 3.19229 11.2834 3.2253 11.2957 3.25618C11.308 3.28706 11.3264 3.3152 11.3496 3.33898C11.3728 3.36276 11.4005 3.38171 11.4311 3.39473C11.4617 3.40775 11.4945 3.41458 11.5277 3.41484C11.5958 3.4146 11.6612 3.38769 11.7098 3.33989C11.7583 3.29209 11.7862 3.22718 11.7875 3.15906V2.32274H14.0058V3.15906C14.0052 3.19229 14.0113 3.2253 14.0236 3.25618C14.0359 3.28706 14.0541 3.3152 14.0774 3.33898C14.1006 3.36276 14.1283 3.38171 14.1588 3.39473C14.1894 3.40775 14.2223 3.41458 14.2556 3.41484C14.3237 3.4146 14.389 3.38769 14.4375 3.33989C14.4861 3.29209 14.5139 3.22718 14.5152 3.15906V2.32274H16.1739C16.2833 2.32314 16.3916 2.34509 16.4925 2.38734C16.5934 2.4296 16.6849 2.49132 16.7619 2.56899C16.8389 2.64667 16.8999 2.73876 16.9413 2.84001C16.9827 2.94125 17.0038 3.04967 17.0033 3.15906V15.1642ZM16.1739 4.53992H1.43602C1.36818 4.53992 1.30311 4.56687 1.25514 4.61484C1.20717 4.66281 1.18025 4.72787 1.18025 4.79571C1.18025 4.86355 1.20717 4.92861 1.25514 4.97658C1.30311 5.02455 1.36818 5.0515 1.43602 5.0515H16.1739C16.2417 5.0515 16.3068 5.02455 16.3548 4.97658C16.4027 4.92861 16.4297 4.86355 16.4297 4.79571C16.4297 4.72787 16.4027 4.66281 16.3548 4.61484C16.3068 4.56687 16.2417 4.53992 16.1739 4.53992ZM13.2564 7.61639L7.91068 12.961C7.85634 13.0153 7.78271 13.0458 7.70589 13.0458C7.62907 13.0458 7.55544 13.0153 7.5011 12.961L4.89326 10.3451C4.84369 10.2972 4.77735 10.2703 4.70836 10.2703C4.63937 10.2703 4.57302 10.2972 4.52345 10.3451C4.47549 10.3931 4.44856 10.4582 4.44856 10.526C4.44856 10.5938 4.47549 10.6589 4.52345 10.7068L7.14141 13.3227C7.29271 13.4733 7.49743 13.5578 7.71089 13.5578C7.92435 13.5578 8.12907 13.4733 8.28037 13.3227L13.6261 7.97909C13.6741 7.93095 13.701 7.86573 13.701 7.79774C13.701 7.72974 13.6741 7.66453 13.6261 7.61639C13.5765 7.56841 13.5102 7.54158 13.4412 7.54158C13.3722 7.54158 13.3059 7.56841 13.2564 7.61639Z" fill="white"/>
</g>
<defs>
<clipPath id="clip0_2_848">
<rect width="17.4257" height="15.8" fill="white" transform="translate(0.0871582 0.719971)"/>
</clipPath>
</defs>
</svg>
