<svg width="20" height="20" viewBox="0 0 20 20" fill="none" xmlns="http://www.w3.org/2000/svg">
<g clip-path="url(#clip0_2_838)">
<path fill-rule="evenodd" clip-rule="evenodd" d="M14.0623 0.838135H5.53777C4.20876 0.840245 2.93475 1.36879 1.99453 2.30807C1.05431 3.24736 0.524431 4.52088 0.520996 5.84989V14.3764C0.52443 15.7055 1.05421 16.9791 1.99441 17.9186C2.9346 18.858 4.20867 19.3868 5.53777 19.3891H14.0623C15.3919 19.3883 16.6668 18.8601 17.6074 17.9203C18.5479 16.9805 19.0771 15.706 19.0789 14.3764V5.84889C19.0768 4.51957 18.5474 3.24539 17.6069 2.30597C16.6663 1.36656 15.3916 0.838662 14.0623 0.838135ZM17.5799 14.3764C17.5783 15.3086 17.2072 16.2021 16.5477 16.861C15.8883 17.5198 14.9945 17.8903 14.0623 17.8911H5.53777C4.60557 17.8903 3.71176 17.5198 3.05232 16.861C2.39287 16.2021 2.02161 15.3086 2.02003 14.3764V5.84889C2.02214 4.91704 2.39354 4.02404 3.05293 3.36559C3.71231 2.70714 4.60592 2.33696 5.53777 2.33617H14.0623C14.9941 2.33696 15.8876 2.70714 16.547 3.36559C17.2064 4.02404 17.5778 4.91704 17.5799 5.84889V14.3764ZM13.9524 9.46755C13.8319 8.65369 13.4727 7.89384 12.9203 7.2841C12.368 6.67437 11.6472 6.24214 10.8492 6.0421C10.0511 5.84205 9.21168 5.88317 8.43702 6.16026C7.66235 6.43735 6.98723 6.93796 6.49711 7.59876C5.84295 8.48584 5.56621 9.59565 5.72722 10.686C5.88823 11.7764 6.4739 12.7588 7.35654 13.419C8.07058 13.9489 8.93586 14.2358 9.82504 14.2375C10.0325 14.2384 10.2396 14.223 10.4446 14.1915C10.9859 14.113 11.5061 13.9284 11.9757 13.6481C12.4454 13.3679 12.8549 12.9975 13.1809 12.5584C13.5069 12.1193 13.7429 11.6201 13.8753 11.0895C14.0077 10.5589 14.0339 10.0083 13.9524 9.46755ZM10.2247 12.7105C9.52716 12.8118 8.81798 12.6325 8.25232 12.212C7.68666 11.7915 7.31072 11.164 7.20673 10.4669C7.1542 10.1214 7.17046 9.76882 7.25468 9.4296C7.33889 9.09037 7.48934 8.77114 7.69738 8.49028C7.90543 8.20941 8.16694 7.97246 8.46691 7.79305C8.76687 7.61363 9.09941 7.4953 9.44528 7.44486C9.70369 7.40649 9.96626 7.40649 10.2247 7.44486C10.8561 7.53801 11.4331 7.85509 11.8502 8.33823C12.2673 8.82137 12.4968 9.43838 12.4968 10.0767C12.4968 10.7149 12.2673 11.3319 11.8502 11.8151C11.4331 12.2982 10.8561 12.6153 10.2247 12.7085V12.7105ZM15.0216 4.89551C14.8992 4.77348 14.7382 4.69766 14.5661 4.68097C14.394 4.66428 14.2215 4.70775 14.0779 4.80398C13.9343 4.9002 13.8284 5.04324 13.7784 5.20872C13.7284 5.37421 13.7373 5.55191 13.8035 5.71158C13.8698 5.87125 13.9894 6.00301 14.1419 6.08443C14.2945 6.16585 14.4705 6.19189 14.64 6.15811C14.8096 6.12434 14.9621 6.03285 15.0718 5.89921C15.1814 5.76557 15.2414 5.59805 15.2415 5.42517C15.2417 5.32642 15.2225 5.22859 15.1847 5.13734C15.147 5.04609 15.0916 4.96322 15.0216 4.89351V4.89551Z" fill="white"/>
</g>
<defs>
<clipPath id="clip0_2_838">
<rect width="18.548" height="18.55" fill="white" transform="translate(0.531006 0.840088)"/>
</clipPath>
</defs>
</svg>
