<svg width="36" height="37" viewBox="0 0 36 37" fill="none" xmlns="http://www.w3.org/2000/svg">
<g clip-path="url(#clip0_2_853)">
<path d="M1 1.62988H35V35.6299H1V1.62988Z" fill="#012169"/>
<path d="M35 1.62988V5.87988L22.3828 18.6299L35 31.0479V35.6299H30.5508L17.8672 23.1455L5.51562 35.6299H1V31.1143L13.3516 18.6963L1 6.54395V1.62988H5.11719L17.8672 14.1143L30.2188 1.62988H35Z" fill="white"/>
<path d="M13.2188 23.1455L13.9492 25.4033L3.78906 35.6299H1V35.4307L13.2188 23.1455ZM21.4531 22.3486L25.0391 22.8799L35 32.6416V35.6299L21.4531 22.3486ZM35 1.62988L22.25 14.6455L21.9844 11.7236L31.9453 1.62988H35ZM1 1.69629L13.8164 14.2471L9.89844 13.7158L1 4.88379V1.69629Z" fill="#C8102E"/>
<path d="M12.6875 1.62988V35.6299H23.3125V1.62988H12.6875ZM1 13.3174V23.9424H35V13.3174H1Z" fill="white"/>
<path d="M1 15.4424V21.8174H35V15.4424H1ZM14.8125 1.62988V35.6299H21.1875V1.62988H14.8125Z" fill="#C8102E"/>
</g>
<rect x="2" y="2.62988" width="32" height="32" rx="16" stroke="black" stroke-width="2"/>
<rect x="0.5" y="1.12988" width="35" height="35" rx="17.5" stroke="white"/>
<defs>
<clipPath id="clip0_2_853">
<rect width="34" height="34" fill="white" transform="translate(1 1.62988)"/>
</clipPath>
</defs>
</svg>
