<svg width="23" height="19" viewBox="0 0 23 19" fill="none" xmlns="http://www.w3.org/2000/svg">
<g clip-path="url(#clip0_2_841)">
<path fill-rule="evenodd" clip-rule="evenodd" d="M22.0801 2.25243C21.2544 2.62529 20.3723 2.85781 19.4701 2.94043C19.9449 2.68443 20.361 2.33203 20.6917 1.90581C21.0223 1.47959 21.2602 0.988981 21.3901 0.465431C20.501 0.995978 19.5265 1.36817 18.5101 1.56543C17.6271 0.701024 16.4457 0.2088 15.2101 0.19043C14.0319 0.22954 12.9148 0.724322 12.0941 1.57059C11.2734 2.41685 10.8132 3.54857 10.8102 4.72743C10.7793 5.05415 10.8238 5.38359 10.9402 5.69043C9.13865 5.62203 7.3724 5.16956 5.75989 4.36331C4.14738 3.55705 2.72573 2.41562 1.59009 1.01543C1.18519 1.72471 0.994246 2.536 1.04016 3.35143C1.05366 4.09288 1.24957 4.8196 1.6106 5.46735C1.97162 6.11511 2.4866 6.66397 3.11011 7.06543C2.39195 7.01219 1.69003 6.82568 1.04016 6.51543C1.02891 7.55153 1.38072 8.55887 2.03467 9.36261C2.68862 10.1663 3.60338 10.7157 4.62012 10.9154C4.21731 11.03 3.7983 11.077 3.38013 11.0544C3.09631 11.0755 2.81163 11.0279 2.55017 10.9154C2.83082 11.8295 3.39679 12.6298 4.16516 13.199C4.93354 13.7681 5.86397 14.0763 6.82019 14.0784C5.22299 15.3597 3.22747 16.0412 1.18018 16.0044H0.0800781C2.14332 17.3044 4.52194 18.0173 6.96008 18.0664C8.64124 18.0742 10.3073 17.7488 11.8619 17.1088C13.4165 16.4688 14.8288 15.527 16.0172 14.3379C17.2056 13.1487 18.1465 11.7358 18.7855 10.1808C19.4245 8.62582 19.749 6.95958 19.7401 5.27843V4.72843C20.6906 4.08276 21.4891 3.23785 22.0801 2.25243Z" fill="white"/>
</g>
<defs>
<clipPath id="clip0_2_841">
<rect width="22" height="17.875" fill="white" transform="translate(0.0800781 0.192383)"/>
</clipPath>
</defs>
</svg>
